<?xml version="1.0" encoding="UTF-8" standalone="no"?>
<svg
   version="1.1"
   id="Calque_1"
   x="0px"
   y="0px"
   viewBox="0 0 32 32"
   enable-background="new 0 0 32 32"
   xml:space="preserve"
   sodipodi:docname="appearance.svg"
   inkscape:version="1.2.2 (b0a8486541, 2022-12-01)"
   xmlns:inkscape="http://www.inkscape.org/namespaces/inkscape"
   xmlns:sodipodi="http://sodipodi.sourceforge.net/DTD/sodipodi-0.dtd"
   xmlns="http://www.w3.org/2000/svg"
   xmlns:svg="http://www.w3.org/2000/svg"><sodipodi:namedview
   id="namedview1"
   pagecolor="#ffffff"
   bordercolor="#000000"
   borderopacity="0.25"
   inkscape:showpageshadow="2"
   inkscape:pageopacity="0.0"
   inkscape:pagecheckerboard="0"
   inkscape:deskcolor="#d1d1d1"
   inkscape:zoom="32"
   inkscape:cx="7.59375"
   inkscape:cy="16.59375"
   inkscape:window-width="1920"
   inkscape:window-height="1027"
   inkscape:window-x="0"
   inkscape:window-y="0"
   inkscape:window-maximized="1"
   inkscape:current-layer="g7954"
   showgrid="false" /><defs
   id="defs45" />

<g
   id="g7954"><path
     fill="none"
     d="M 8.9659036,28 H 22.965904 c 1.1,0 2,-0.9 2,-2 V 15 14 H 6.9659036 v 1 11 c 0,1.1 0.9,2 2,2 z"
     id="path8" /><rect
     style="fill:#000000;fill-opacity:0;stroke:none;stroke-width:0.000000879999;stroke-linecap:round;stroke-linejoin:round"
     id="rect2311"
     width="29.020048"
     height="4"
     x="1.4899759"
     y="7.1611009" /><path
     id="path2-6"
     d="M 28,6 C 28,4.9 27.1,4 26,4 H 6 C 4.9,4 4,4.9 4,6 v 20 c 0,1.1 0.9,2 2,2 h 20 c 1.1,0 2,-0.9 2,-2 z"
     fill="#f2f2f2"
     clip-rule="evenodd"
     fill-rule="evenodd" /><g
     id="g12"><path
       id="path6"
       d="m 6,28 h 20 c 1.1,0 2,-0.9 2,-2 V 9 6 C 28,4.9 27.1,4 26,4 H 6 C 4.9,4 4,4.9 4,6 v 3 17 c 0,1.1 0.9,2 2,2 z"
       fill="none" /><path
       id="path8-7"
       d="M 26,0 H 6 C 2.7,0 0,2.7 0,6 V 9 H 4 V 6 C 4,4.9 4.9,4 6,4 h 20 c 1.1,0 2,0.9 2,2 v 3 h 4 V 6 C 32,2.7 29.3,0 26,0 Z"
       fill="#39b54a" /><path
       id="path10-5"
       d="m 28,26 c 0,1.1 -0.9,2 -2,2 H 6 C 4.9,28 4,27.1 4,26 V 9 H 0 v 17 c 0,3.3 2.7,6 6,6 h 20 c 3.3,0 6,-2.7 6,-6 V 9 h -4 z"
       fill="#8c6239" /></g><g
     id="g405"
     transform="matrix(0.83300703,0,0,0.83300703,2.8229171,4.0576364)"
     style="fill:#c1272d;fill-opacity:1"><ellipse
       style="fill:#c1272d;fill-opacity:1;stroke-width:17.4409"
       id="path5"
       cx="21.678162"
       cy="-4.0277658"
       rx="3.0011752"
       ry="9.6037607"
       transform="rotate(39.362247)" /><path
       id="path5-5"
       style="fill:#c1272d;stroke-width:13.1044;fill-opacity:1"
       d="m 11.122018,25.153408 c -2.2661033,1.34134 -4.481109,0.02256 -5.2111748,-1.735478 -0.7300656,-1.75804 2.5105732,1.773841 3.2456219,-3.093456 0.083079,-0.550088 0.5656936,-0.888331 0.9376939,-1.170592 0.527959,-0.400593 3.216445,-1.039549 3.809104,0.387601 0.730065,1.758031 -0.51516,4.270572 -2.781245,5.611916 z"
       sodipodi:nodetypes="ssssss" /></g></g></svg>
